# xmcd CD database file generated by Grip 3.2.0
# 
# Track frame offsets:
#       150
#       2724
#       4463
#       29010
#       31184
#       54702
#       56384
#       80103
#       82149
#       106033
#       107599
#       132801
#       135192
#       160424
#       161838
#       185736
#       187889
# 
# Disc length: 2830 seconds
# 
# Revision: 1
# Processed by: cddbd v1.5.1PL2 Copyright (c) Steve Scherf et al.
# Submitted via: Grip 3.2.0
# 
DISCID=dc0b0c11
DTITLE=Total Guitar - Bad-ass blues backings
DYEAR=2004
DGENRE=Blues
TTITLE0=Tuning guide
TTITLE1=Albert King Style Lick
TTITLE2=Albert King Style Backing
TTITLE3=Jimi Hendrix Style Lick
TTITLE4=Jimi Hendrix Style Backing
TTITLE5=BB King Style Lick
TTITLE6=BB King Style Backing
TTITLE7=Eric Clapton Style Lick
TTITLE8=Eric Clapton Style Backing
TTITLE9=Freddie King Style Lick
TTITLE10=Freddie King Style Backing
TTITLE11=Gary Moore Style Lick
TTITLE12=Gary Moore Style Backing
TTITLE13=SRV Style Lick
TTITLE14=SRV Style Backing
TTITLE15=Peter Green Style Lick
TTITLE16=Peter Green Style Backing
EXTD=Hakan
EXTT0=
EXTT1=
EXTT2=
EXTT3=
EXTT4=
EXTT5=
EXTT6=
EXTT7=
EXTT8=
EXTT9=
EXTT10=
EXTT11=
EXTT12=
EXTT13=
EXTT14=
EXTT15=
EXTT16=
PLAYORDER=
